<mxfile host="app.diagrams.net" modified="2024-03-25T02:48:47.711Z" agent="Mozilla/5.0 (Windows NT 10.0; Win64; x64) AppleWebKit/537.36 (KHTML, like Gecko) Chrome/122.0.0.0 Safari/537.36" etag="BuR21ZQf-TnOT9GY48ID" version="24.0.7" type="github">
  <diagram name="第 1 页" id="xyu0AtxoS-vM0-YnNWbF">
    <mxGraphModel dx="819" dy="451" grid="1" gridSize="10" guides="1" tooltips="1" connect="1" arrows="1" fold="1" page="1" pageScale="1" pageWidth="827" pageHeight="1169" math="0" shadow="0">
      <root>
        <mxCell id="0" />
        <mxCell id="1" parent="0" />
        <mxCell id="uv_32eUth4veDvRvPffU-1" value="" style="shape=parallelogram;perimeter=parallelogramPerimeter;whiteSpace=wrap;html=1;fixedSize=1;size=60;fillColor=#d5e8d4;strokeColor=#82b366;" vertex="1" parent="1">
          <mxGeometry x="280" y="400" width="280" height="150" as="geometry" />
        </mxCell>
        <mxCell id="uv_32eUth4veDvRvPffU-4" value="" style="shape=parallelogram;perimeter=parallelogramPerimeter;whiteSpace=wrap;html=1;fixedSize=1;size=60;fillColor=#ffe6cc;strokeColor=#d79b00;" vertex="1" parent="1">
          <mxGeometry x="280" y="360" width="280" height="150" as="geometry" />
        </mxCell>
        <mxCell id="uv_32eUth4veDvRvPffU-5" value="视图层" style="shape=parallelogram;perimeter=parallelogramPerimeter;whiteSpace=wrap;html=1;fixedSize=1;size=60;fillColor=#dae8fc;strokeColor=#6c8ebf;" vertex="1" parent="1">
          <mxGeometry x="280" y="320" width="280" height="150" as="geometry" />
        </mxCell>
        <mxCell id="uv_32eUth4veDvRvPffU-6" value="逻辑层" style="text;html=1;align=center;verticalAlign=middle;whiteSpace=wrap;rounded=0;" vertex="1" parent="1">
          <mxGeometry x="650" y="342" width="60" height="30" as="geometry" />
        </mxCell>
        <mxCell id="uv_32eUth4veDvRvPffU-7" value="数据层" style="text;html=1;align=center;verticalAlign=middle;whiteSpace=wrap;rounded=0;" vertex="1" parent="1">
          <mxGeometry x="650" y="384" width="60" height="30" as="geometry" />
        </mxCell>
        <mxCell id="uv_32eUth4veDvRvPffU-8" value="" style="endArrow=none;html=1;rounded=0;entryX=-0.1;entryY=0.6;entryDx=0;entryDy=0;entryPerimeter=0;exitX=1;exitY=0;exitDx=0;exitDy=0;dashed=1;fillColor=#ffe6cc;strokeColor=#d79b00;" edge="1" parent="1" source="uv_32eUth4veDvRvPffU-4" target="uv_32eUth4veDvRvPffU-6">
          <mxGeometry width="50" height="50" relative="1" as="geometry">
            <mxPoint x="390" y="430" as="sourcePoint" />
            <mxPoint x="440" y="380" as="targetPoint" />
          </mxGeometry>
        </mxCell>
        <mxCell id="uv_32eUth4veDvRvPffU-9" value="" style="endArrow=none;html=1;rounded=0;entryX=-0.1;entryY=0.6;entryDx=0;entryDy=0;entryPerimeter=0;exitX=1;exitY=0;exitDx=0;exitDy=0;fillColor=#d5e8d4;strokeColor=#82b366;dashed=1;" edge="1" parent="1">
          <mxGeometry width="50" height="50" relative="1" as="geometry">
            <mxPoint x="560" y="400" as="sourcePoint" />
            <mxPoint x="644" y="400" as="targetPoint" />
          </mxGeometry>
        </mxCell>
      </root>
    </mxGraphModel>
  </diagram>
</mxfile>
